<svg width="88" height="88" viewBox="0 0 88 88" fill="none" xmlns="http://www.w3.org/2000/svg">
<g filter="url(#filter0_d_3_18)">
<path d="M61.3333 74.6667H24C23.2641 74.6667 22.6667 75.2641 22.6667 76V78.6667C22.6667 79.4027 23.2641 80 24 80C24.7359 80 25.3333 79.4027 25.3333 78.6667V77.3334H61.3333C62.0692 77.3334 62.6666 76.7361 62.6666 76.0002C62.6666 75.2642 62.0694 74.6667 61.3333 74.6667Z" fill="#D4C17F"/>
<path d="M33.3333 33.3333C33.3333 34.0692 33.9306 34.6666 34.6666 34.6666H40C40.7359 34.6666 41.3333 34.0692 41.3333 33.3333V25.3333C41.3333 24.5973 40.7359 24 40 24H34.6667C33.9308 24 33.3334 24.5973 33.3334 25.3333V33.3333H33.3333ZM36 26.6667H38.6667V32H36V26.6667Z" fill="#D4C17F"/>
<path d="M21.3333 16H5.33328C4.59734 16 4 16.5973 4 17.3333V44C4 44.7359 4.59734 45.3333 5.33328 45.3333C6.06922 45.3333 6.66656 44.7359 6.66656 44V18.6667H21.3333C22.0692 18.6667 22.6666 18.0694 22.6666 17.3334C22.6666 16.5975 22.0694 16 21.3333 16Z" fill="#D4C17F"/>
<path d="M68 65.3333C68 66.0692 68.5973 66.6666 69.3333 66.6666H74.6666C75.4025 66.6666 75.9998 66.0692 75.9998 65.3333V57.3333C75.9998 56.5973 75.4025 56 74.6666 56H69.3333C68.5973 56 68 56.5973 68 57.3333V65.3333ZM70.6667 58.6667H73.3334V64H70.6667V58.6667Z" fill="#D4C17F"/>
<path d="M10.6667 48C4.07594 48 4 65.16 4 65.3333C4 68.5533 6.29469 71.2453 9.33328 71.8653V78.6667C9.33328 79.4027 9.93062 80 10.6666 80C11.4025 80 11.9998 79.4027 11.9998 78.6667V71.8653C15.0384 71.2453 17.3331 68.5533 17.3331 65.3333C17.3333 65.16 17.2573 48 10.6667 48ZM10.6667 69.3333C8.46141 69.3333 6.66672 67.5386 6.66672 65.3333C6.66672 58.6906 8.45078 50.6666 10.6667 50.6666C12.8827 50.6666 14.6667 58.6906 14.6667 65.3333C14.6667 67.5386 12.872 69.3333 10.6667 69.3333Z" fill="#D4C17F"/>
<path d="M18.6667 40H13.3333C12.5973 40 12 40.5973 12 41.3333V44C12 44.7359 12.5973 45.3333 13.3333 45.3333C14.0692 45.3333 14.6666 44.7359 14.6666 44V42.6667H17.3333V49.3334C17.3333 50.0694 17.9306 50.6667 18.6666 50.6667C19.4025 50.6667 19.9998 50.0694 19.9998 49.3334V41.3334C20 40.5973 19.4027 40 18.6667 40Z" fill="#D4C17F"/>
<path d="M69.3333 34.6667H74.6666C75.4025 34.6667 75.9998 34.0694 75.9998 33.3334V25.3334C75.9998 24.5975 75.4025 24.0002 74.6666 24.0002H69.3333C68.5973 24.0002 68 24.5975 68 25.3334V33.3334C68 34.0694 68.5973 34.6667 69.3333 34.6667ZM70.6667 26.6667H73.3334V32H70.6667V26.6667Z" fill="#D4C17F"/>
<path d="M18.6667 24H13.3333C12.5973 24 12 24.5973 12 25.3333V33.3333C12 34.0692 12.5973 34.6666 13.3333 34.6666H18.6666C19.4025 34.6666 19.9998 34.0692 19.9998 33.3333V25.3333C20 24.5973 19.4027 24 18.6667 24ZM17.3333 32H14.6667V26.6667H17.3334V32H17.3333Z" fill="#D4C17F"/>
<path d="M46.6667 33.3333C46.6667 34.0692 47.2641 34.6666 48 34.6666H53.3333C54.0692 34.6666 54.6666 34.0692 54.6666 33.3333V25.3333C54.6666 24.5973 54.0692 24 53.3333 24H48C47.2641 24 46.6667 24.5973 46.6667 25.3333V33.3333ZM49.3333 26.6667H52V32H49.3333V26.6667Z" fill="#D4C17F"/>
<path d="M82.6667 16H66.6667C65.9308 16 65.3334 16.5973 65.3334 17.3333C65.3334 18.0692 65.9308 18.6666 66.6667 18.6666H81.3334V72.2453C80.9148 72.0959 80.4708 72 80.0002 72C79.7695 72 79.5402 72.02 79.3148 72.06C78.3948 70.4027 76.6442 69.3333 74.6669 69.3333C72.6895 69.3333 70.9389 70.4027 70.0189 72.06C69.7936 72.02 69.5642 72 69.3336 72C67.1283 72 65.3336 73.7947 65.3336 76C65.3336 78.2053 67.1283 80 69.3336 80H80C82.2053 80 84 78.2053 84 76V17.3333C84 16.5973 83.4027 16 82.6667 16ZM80 77.3333H69.3333C68.5986 77.3333 68 76.7347 68 76C68 75.2653 68.5986 74.6667 69.3333 74.6667C69.5892 74.6667 69.8319 74.74 70.0559 74.8841C70.4212 75.1187 70.8773 75.1614 71.28 74.9987C71.6827 74.8361 71.98 74.4867 72.0773 74.0641C72.3587 72.8494 73.4241 72 74.6667 72C75.9094 72 76.9747 72.8494 77.2561 74.0641C77.3534 74.4867 77.6508 74.8361 78.0534 74.9987C78.4548 75.1614 78.912 75.1187 79.2775 74.8841C80.1455 74.3241 81.3334 75.0094 81.3334 76C81.3333 76.7347 80.7347 77.3333 80 77.3333Z" fill="#D4C17F"/>
<path d="M48 18.6667H53.3333C54.0692 18.6667 54.6666 18.0694 54.6666 17.3334V9.33344C54.6666 8.59751 54.0692 8.00016 53.3333 8.00016H48C47.2641 8.00016 46.6667 8.59751 46.6667 9.33344V17.3334C46.6667 18.0694 47.2641 18.6667 48 18.6667ZM49.3333 10.6667H52V16H49.3333V10.6667Z" fill="#D4C17F"/>
<path d="M46.6667 49.3333C46.6667 50.0692 47.2641 50.6666 48 50.6666H53.3333C54.0692 50.6666 54.6666 50.0692 54.6666 49.3333V41.3333C54.6666 40.5973 54.0692 40 53.3333 40H48C47.2641 40 46.6667 40.5973 46.6667 41.3333V49.3333ZM49.3333 42.6667H52V48H49.3333V42.6667Z" fill="#D4C17F"/>
<path d="M34.6667 18.6667H40C40.7359 18.6667 41.3333 18.0694 41.3333 17.3334V9.33344C41.3333 8.59751 40.7359 8.00016 40 8.00016H34.6667C33.9308 8.00016 33.3334 8.59751 33.3334 9.33344V17.3334C33.3333 18.0694 33.9306 18.6667 34.6667 18.6667ZM36 10.6667H38.6667V16H36V10.6667Z" fill="#D4C17F"/>
<path d="M43.0533 64.3867C42.8133 64.64 42.6666 64.9867 42.6666 65.3334C42.6666 65.6802 42.8133 66.0267 43.0533 66.2802C43.3066 66.5202 43.6533 66.6669 44 66.6669C44.3467 66.6669 44.6933 66.5202 44.9467 66.2802C45.1867 66.0269 45.3334 65.6802 45.3334 65.3334C45.3334 64.9867 45.1867 64.6402 44.9467 64.3867C44.44 63.8933 43.56 63.8933 43.0533 64.3867Z" fill="#D4C17F"/>
<path d="M33.3333 49.3333C33.3333 50.0692 33.9306 50.6666 34.6666 50.6666H40C40.7359 50.6666 41.3333 50.0692 41.3333 49.3333V41.3333C41.3333 40.5973 40.7359 40 40 40H34.6667C33.9308 40 33.3334 40.5973 33.3334 41.3333V49.3333H33.3333ZM36 42.6667H38.6667V48H36V42.6667Z" fill="#D4C17F"/>
<path d="M30.6667 57.3333C30.6667 58.0692 31.2641 58.6666 32 58.6666H36V70.6666C36 71.4025 36.5973 71.9998 37.3333 71.9998C38.0692 71.9998 38.6666 71.4025 38.6666 70.6666V58.6666H49.3333V70.6666C49.3333 71.4025 49.9306 71.9998 50.6666 71.9998C51.4025 71.9998 51.9998 71.4025 51.9998 70.6666V58.6666H55.9998C56.7358 58.6666 57.3331 58.0692 57.3331 57.3333C57.3331 56.5973 56.7358 56 55.9998 56H32C31.2641 56 30.6667 56.5973 30.6667 57.3333Z" fill="#D4C17F"/>
<path d="M68 49.3333C68 50.0692 68.5973 50.6666 69.3333 50.6666H74.6666C75.4025 50.6666 75.9998 50.0692 75.9998 49.3333V41.3333C75.9998 40.5973 75.4025 40 74.6666 40H69.3333C68.5973 40 68 40.5973 68 41.3333V49.3333ZM70.6667 42.6667H73.3334V48H70.6667V42.6667Z" fill="#D4C17F"/>
<path d="M61.3333 0H26.6667C25.9308 0 25.3334 0.597344 25.3334 1.33328V70.6666C25.3334 71.4025 25.9308 71.9998 26.6667 71.9998C27.4027 71.9998 28 71.4025 28 70.6666V2.66656H60V70.6666C60 71.4025 60.5973 71.9998 61.3333 71.9998C62.0692 71.9998 62.6666 71.4025 62.6666 70.6666V1.33328C62.6667 0.597344 62.0694 0 61.3333 0Z" fill="#D4C17F"/>
</g>
<defs>
<filter id="filter0_d_3_18" x="0" y="0" width="88" height="88" filterUnits="userSpaceOnUse" color-interpolation-filters="sRGB">
<feFlood flood-opacity="0" result="BackgroundImageFix"/>
<feColorMatrix in="SourceAlpha" type="matrix" values="0 0 0 0 0 0 0 0 0 0 0 0 0 0 0 0 0 0 127 0" result="hardAlpha"/>
<feOffset dy="4"/>
<feGaussianBlur stdDeviation="2"/>
<feComposite in2="hardAlpha" operator="out"/>
<feColorMatrix type="matrix" values="0 0 0 0 0 0 0 0 0 0 0 0 0 0 0 0 0 0 0.25 0"/>
<feBlend mode="normal" in2="BackgroundImageFix" result="effect1_dropShadow_3_18"/>
<feBlend mode="normal" in="SourceGraphic" in2="effect1_dropShadow_3_18" result="shape"/>
</filter>
</defs>
</svg>
